<svg id="visual" viewBox="0 0 1000 300" width="1000" height="300" xmlns="http://www.w3.org/2000/svg" xmlns:xlink="http://www.w3.org/1999/xlink" version="1.1"><path d="M0 147L33.3 141C66.7 135 133.3 123 200 133.7C266.7 144.3 333.3 177.7 400 191.3C466.7 205 533.3 199 600 172.7C666.7 146.3 733.3 99.7 800 88.2C866.7 76.7 933.3 100.3 966.7 112.2L1000 124L1000 301L966.7 301C933.3 301 866.7 301 800 301C733.3 301 666.7 301 600 301C533.3 301 466.7 301 400 301C333.3 301 266.7 301 200 301C133.3 301 66.7 301 33.3 301L0 301Z" fill="#595959" stroke-linecap="round" stroke-linejoin="miter"></path></svg>