<?xml version="1.0" standalone="no"?>
<svg xmlns:xlink="http://www.w3.org/1999/xlink" id="wave" style="transform:rotate(0deg); transition: 0.3s" viewBox="0 0 1440 370" version="1.1" xmlns="http://www.w3.org/2000/svg"><defs><linearGradient id="sw-gradient-0" x1="0" x2="0" y1="1" y2="0"><stop stop-color="rgba(48.133, 48.133, 48.133, 0.2)" offset="0%"/><stop stop-color="rgba(239.383, 239.383, 239.383, 0.27)" offset="100%"/></linearGradient></defs><path style="transform:translate(0, 0px); opacity:1" fill="url(#sw-gradient-0)" d="M0,185L40,172.7C80,160,160,136,240,160.3C320,185,400,259,480,246.7C560,234,640,136,720,123.3C800,111,880,185,960,228.2C1040,271,1120,284,1200,259C1280,234,1360,173,1440,154.2C1520,136,1600,160,1680,148C1760,136,1840,86,1920,98.7C2000,111,2080,185,2160,197.3C2240,210,2320,160,2400,166.5C2480,173,2560,234,2640,252.8C2720,271,2800,247,2880,215.8C2960,185,3040,148,3120,148C3200,148,3280,185,3360,222C3440,259,3520,296,3600,314.5C3680,333,3760,333,3840,283.7C3920,234,4000,136,4080,98.7C4160,62,4240,86,4320,117.2C4400,148,4480,185,4560,185C4640,185,4720,148,4800,154.2C4880,160,4960,210,5040,197.3C5120,185,5200,111,5280,123.3C5360,136,5440,234,5520,234.3C5600,234,5680,136,5720,86.3L5760,37L5760,370L5720,370C5680,370,5600,370,5520,370C5440,370,5360,370,5280,370C5200,370,5120,370,5040,370C4960,370,4880,370,4800,370C4720,370,4640,370,4560,370C4480,370,4400,370,4320,370C4240,370,4160,370,4080,370C4000,370,3920,370,3840,370C3760,370,3680,370,3600,370C3520,370,3440,370,3360,370C3280,370,3200,370,3120,370C3040,370,2960,370,2880,370C2800,370,2720,370,2640,370C2560,370,2480,370,2400,370C2320,370,2240,370,2160,370C2080,370,2000,370,1920,370C1840,370,1760,370,1680,370C1600,370,1520,370,1440,370C1360,370,1280,370,1200,370C1120,370,1040,370,960,370C880,370,800,370,720,370C640,370,560,370,480,370C400,370,320,370,240,370C160,370,80,370,40,370L0,370Z"/></svg>